<svg xmlns="http://www.w3.org/2000/svg" fill="none" stroke="currentColor" stroke-width="1.5" class="h-6 w-6 text-gray-400" viewBox="0 0 24 24"><path stroke-linecap="round" stroke-linejoin="round" d="M6.8 3v2.3M17.1 3v2.3M3 18.6V7.6a2.3 2.3 0 0 1 2.3-2.3h13.4A2.3 2.3 0 0 1 21 7.5v11.3m-18 0A2.3 2.3 0 0 0 5.3 21h13.4a2.3 2.3 0 0 0 2.3-2.3m-18 0v-7.4A2.3 2.3 0 0 1 5.3 9h13.4a2.3 2.3 0 0 1 2.3 2.3v7.4m-9-6h0v0h0v0Zm0 2.3h0v0h0v0Zm0 2.3h0v0h0v0ZM9.7 15h0v0h0v0Zm0 2.3h0v0h0v0ZM7.5 15h0v0h0v0Zm0 2.3h0v0h0v0Zm6.8-4.6h0v0h0v0Zm0 2.3h0v0h0v0Zm0 2.3h0v0h0v0Zm2.2-4.6h0v0h0v0Zm0 2.3h0v0h0v0Z"/></svg>